<svg width="64" height="64" viewBox="0 0 64 64" fill="none" xmlns="http://www.w3.org/2000/svg">
<circle cx="32" cy="32" r="32" fill="#FBE38D" fill-opacity="0.5"/>
<path d="M35.784 35.8429C35.784 35.8429 38.639 32.9879 39.615 32.0139C42.678 28.9509 41.146 22.8229 41.146 22.8229C41.146 22.8229 35.018 21.2909 31.955 24.3549C29.665 26.6449 28.139 28.2219 28.139 28.2219C28.139 28.2219 24.296 27.4179 21.998 29.7159L34.253 41.9709C36.551 39.6729 35.784 35.8429 35.784 35.8429ZM34.282 26.8579C35.064 26.0759 36.329 26.0759 37.11 26.8579C37.892 27.6389 37.892 28.9039 37.11 29.6859C36.329 30.4669 35.064 30.4669 34.282 29.6859C33.501 28.9039 33.501 27.6399 34.282 26.8579ZM22.969 40.9689C22.969 40.9689 25.969 40.9689 27.969 38.9689L24.969 35.9689C22.969 36.9689 22.969 40.9689 22.969 40.9689Z" fill="#F0A536"/>
</svg>
