<svg width="64" height="64" viewBox="0 0 64 64" fill="none" xmlns="http://www.w3.org/2000/svg">
<rect width="64" height="64" rx="12" fill="#98FF68" fill-opacity="0.25"/>
<path d="M32 22C26.486 22 22 26.486 22 32C22 37.514 26.486 42 32 42C37.514 42 42 37.514 42 32C42 26.486 37.514 22 32 22ZM24 32C24 31.101 24.156 30.238 24.431 29.431L26 31L28 33V35L30 37L31 38V39.931C27.061 39.436 24 36.072 24 32ZM38.33 36.873C37.677 36.347 36.687 36 36 36V35C36 33.896 35.104 33 34 33H30V31V30C31.104 30 32 29.104 32 28V27H33C34.104 27 35 26.104 35 25V24.589C37.928 25.778 40 28.65 40 32C40 33.835 39.373 35.522 38.33 36.873Z" fill="#09AB37"/>
</svg>