<svg width="148" height="28" viewBox="0 0 148 28" fill="none" xmlns="http://www.w3.org/2000/svg">
<path d="M10.7971 12.2095C16.1794 12.2095 20.5628 7.84889 20.5628 2.42261H10.7971V12.2095Z" fill="#481788"/>
<path d="M0 13.3398C0 18.7341 4.35115 23.0945 9.7657 23.0945V13.3398H0Z" fill="#481788"/>
<path d="M10.7971 13.3398V23.1267H20.5628C20.5628 17.7004 16.2117 13.3398 10.7971 13.3398Z" fill="#481788"/>
<path d="M0 12.2095H9.7657V2.42261C4.35115 2.42261 0 6.81543 0 12.2095Z" fill="#481788"/>
<path d="M21.5618 2.42261C21.5618 7.81667 25.9129 12.2095 31.3275 12.2095V2.42261H21.5618Z" fill="#481788"/>
<path d="M21.5618 23.0945H31.3275V13.3398C25.9451 13.3398 21.5618 17.7004 21.5618 23.0945Z" fill="#481788"/>
<path d="M146.55 4.26367C146.807 4.26367 147.033 4.32812 147.259 4.45747C147.484 4.5866 147.678 4.78041 147.807 5.00644C147.936 5.23246 148 5.49094 148 5.74943C148 6.00768 147.936 6.23393 147.807 6.49219C147.678 6.71844 147.484 6.91225 147.259 7.04137C147.033 7.1705 146.775 7.23518 146.517 7.23518C146.26 7.23518 146.034 7.1705 145.776 7.04137C145.551 6.91225 145.357 6.71844 145.228 6.49219C145.099 6.26616 145.035 6.00768 145.035 5.74943C145.035 5.49094 145.099 5.23246 145.228 5.00644C145.357 4.78041 145.551 4.5866 145.776 4.45747C146.066 4.32812 146.292 4.26367 146.55 4.26367ZM146.55 4.55438C146.356 4.55438 146.163 4.61883 145.969 4.71573C145.776 4.81263 145.647 4.97421 145.518 5.13579C145.422 5.32936 145.357 5.52317 145.357 5.71697C145.357 5.91078 145.422 6.10458 145.518 6.29838C145.615 6.49219 145.776 6.62154 145.969 6.75067C146.163 6.84757 146.356 6.91225 146.55 6.91225C146.743 6.91225 146.936 6.84757 147.13 6.75067C147.323 6.65377 147.452 6.49219 147.581 6.29838C147.678 6.10458 147.742 5.91078 147.742 5.71697C147.742 5.52317 147.678 5.29714 147.581 5.13579C147.484 4.94199 147.323 4.81263 147.13 4.71573C146.936 4.61883 146.743 4.55438 146.55 4.55438ZM145.873 6.52464V4.97421H146.195C146.485 4.97421 146.646 4.97421 146.679 4.97421C146.775 4.97421 146.872 5.00643 146.936 5.03889C147.001 5.07111 147.033 5.13579 147.097 5.20024C147.13 5.26492 147.162 5.32936 147.162 5.42626C147.162 5.52317 147.13 5.62007 147.065 5.71697C147.001 5.78165 146.904 5.84633 146.743 5.87855C146.775 5.91077 146.84 5.91078 146.84 5.94323C146.872 5.97545 146.904 6.00768 146.936 6.07236C146.936 6.07236 147.001 6.13703 147.065 6.26616L147.259 6.58909H146.872L146.743 6.33084C146.646 6.16926 146.582 6.04013 146.517 6.00768C146.453 5.97545 146.389 5.94323 146.292 5.94323H146.195V6.58909H145.873V6.52464ZM146.195 5.65252H146.324C146.517 5.65252 146.614 5.65253 146.679 5.62007C146.711 5.62007 146.743 5.58784 146.775 5.55562C146.807 5.52317 146.807 5.49094 146.807 5.42626C146.807 5.39404 146.807 5.32937 146.775 5.29714C146.743 5.26492 146.711 5.23246 146.679 5.23246C146.646 5.23246 146.517 5.20024 146.324 5.20024H146.195V5.65252Z" fill="#481788"/>
<path d="M46.5401 18.96C48.9896 18.96 50.7299 18.0879 52.4383 16.3759L54.5008 18.3786C52.5994 20.5749 50.1821 22.1253 46.6046 22.1253C40.7709 22.1253 36.8711 18.0556 36.8711 12.9521C36.8711 7.84871 40.8998 3.77905 46.2823 3.77905C51.568 3.77905 55.3389 7.7518 55.3389 12.6291C55.3389 13.1136 55.2744 13.7273 55.1778 14.1473H40.8353C41.1576 16.925 43.4459 18.96 46.5401 18.96ZM40.8998 11.2081H51.3102C50.8266 8.75305 48.8607 6.97659 46.2501 6.97659C43.6715 6.97659 41.5445 8.75305 40.8998 11.2081Z" fill="#481788"/>
<path d="M73.9355 10.9173V21.7377H70.068V11.2725C70.068 8.91463 68.4565 7.23507 66.1359 7.23507C63.7509 7.23507 61.5914 9.23756 61.5914 12.1124V21.7701H57.7239V4.19888H61.5914V6.52453C62.784 4.90942 64.6856 3.77905 66.9093 3.77905C71.1316 3.77905 73.9355 6.62144 73.9355 10.9173Z" fill="#481788"/>
<path d="M87.6655 4.19897L83.0888 16.8282L78.5445 4.19897H74.5156L81.1551 21.7056L79.0923 27.3903H82.9277L91.6942 4.19897H87.6655Z" fill="#481788"/>
<path d="M99.9128 3.77905C102.459 3.77905 104.586 4.84497 106.069 6.58898V4.19888H109.904V21.7377H106.069V19.3798C104.586 21.0918 102.459 22.1578 99.9128 22.1578C94.9816 22.1578 91.3718 18.0879 91.3718 12.9845C91.3718 7.88116 94.9816 3.77905 99.9128 3.77905ZM100.654 18.734C103.716 18.734 106.036 16.182 106.036 12.9845C106.036 9.78675 103.748 7.23507 100.654 7.23507C97.56 7.23507 95.2394 9.78675 95.2394 12.9845C95.2716 16.182 97.5922 18.734 100.654 18.734Z" fill="#481788"/>
<path d="M139.524 4.19888V6.58898C138.041 4.8772 135.914 3.77905 133.368 3.77905C128.436 3.77905 124.827 7.84871 124.827 12.9521C124.827 18.0556 128.436 22.1253 133.368 22.1253C135.914 22.1253 138.041 21.0594 139.524 19.3476V21.7055H143.359V4.19888H139.524ZM134.141 18.734C131.079 18.734 128.726 16.182 128.726 12.9845C128.726 9.78675 131.015 7.23507 134.141 7.23507C137.235 7.23507 139.524 9.78675 139.524 12.9845C139.524 16.182 137.203 18.734 134.141 18.734Z" fill="#481788"/>
<path d="M123.634 19.2184V18.7663H122.216C122.152 18.7663 122.087 18.7663 122.023 18.7663C119.831 18.7663 118.993 17.8295 118.993 15.8915V7.59058H123.441V4.19901H118.993V0H115.125V4.19901H111.774V7.59058H115.125V16.0853C115.125 20.1874 117.156 22.1579 120.83 22.1579C120.927 22.1579 121.056 22.1579 121.152 22.1579H123.634V19.2184Z" fill="#481788"/>
</svg>
