<svg width="174" height="260" viewBox="0 0 174 260" fill="none" xmlns="http://www.w3.org/2000/svg">
<path d="M86 86V0H0C0.00526861 22.8104 9.06828 44.6848 25.1958 60.8124C41.3234 76.9399 63.1948 86 86 86Z" fill="#7557D3"/>
<path d="M173 86H87V172C109.779 172.026 131.635 162.981 147.763 146.854C163.891 130.726 172.968 108.837 173 86Z" fill="#A6CAE9"/>
<path d="M86 86V172H0C0 149.191 9.06069 127.317 25.1888 111.189C41.3169 95.0607 63.1914 86 86 86Z" fill="#00ABEC"/>
<path d="M173.562 173H87.0117V259.57C109.968 259.565 131.982 250.442 148.213 234.207C164.444 217.973 173.562 195.956 173.562 173Z" fill="#7557D3"/>
<path d="M173 0L173 86L87 86C87 63.1914 96.0607 41.3169 112.189 25.1888C128.317 9.0607 150.191 0 173 0Z" fill="#00ABEC"/>
</svg>
