<svg width="176" height="191" fill="none" xmlns="http://www.w3.org/2000/svg"><path fill-rule="evenodd" clip-rule="evenodd" d="M6 3a3 3 0 1 1-6 0 3 3 0 1 1 6 0zM6 18a3 3 0 1 1-6 0 3 3 0 1 1 6 0zM22 18a3 3 0 1 1-6 0 3 3 0 1 1 6 0zM37 18a3 3 0 1 1-6 0 3 3 0 1 1 6 0zM52 18a3 3 0 1 1-6 0 3 3 0 1 1 6 0zM68 18a3 3 0 1 1-6 0 3 3 0 1 1 6 0zM83 18a3 3 0 1 1-6 0 3 3 0 1 1 6 0zM99 18a3 3 0 1 1-6 0 3 3 0 1 1 6 0zM114 18c0 1.657-1.342 3-3 3s-3-1.343-3-3 1.342-3 3-3 3 1.343 3 3zM130 18c0 1.657-1.342 3-3 3s-3-1.343-3-3 1.342-3 3-3 3 1.343 3 3zM145 18c0 1.657-1.342 3-3 3s-3-1.343-3-3 1.342-3 3-3 3 1.343 3 3zM160 18c0 1.657-1.342 3-3 3s-3-1.343-3-3 1.342-3 3-3 3 1.343 3 3zM176 18c0 1.657-1.342 3-3 3s-3-1.343-3-3 1.342-3 3-3 3 1.343 3 3zM6 34a3 3 0 1 1-6 0 3 3 0 1 1 6 0zM22 34a3 3 0 1 1-6 0 3 3 0 1 1 6 0zM37 34a3 3 0 1 1-6 0 3 3 0 1 1 6 0zM52 34a3 3 0 1 1-6 0 3 3 0 1 1 6 0zM68 34a3 3 0 1 1-6 0 3 3 0 1 1 6 0zM83 34a3 3 0 1 1-6 0 3 3 0 1 1 6 0zM99 34a3 3 0 1 1-6 0 3 3 0 1 1 6 0zM114 34c0 1.657-1.342 3-3 3s-3-1.343-3-3 1.342-3 3-3 3 1.343 3 3zM130 34c0 1.657-1.342 3-3 3s-3-1.343-3-3 1.342-3 3-3 3 1.343 3 3zM145 34c0 1.657-1.342 3-3 3s-3-1.343-3-3 1.342-3 3-3 3 1.343 3 3zM160 34c0 1.657-1.342 3-3 3s-3-1.343-3-3 1.342-3 3-3 3 1.343 3 3zM176 34c0 1.657-1.342 3-3 3s-3-1.343-3-3 1.342-3 3-3 3 1.343 3 3zM6 49a3 3 0 1 1-6 0 3 3 0 1 1 6 0zM22 49a3 3 0 1 1-6 0 3 3 0 1 1 6 0zM37 49a3 3 0 1 1-6 0 3 3 0 1 1 6 0zM52 49a3 3 0 1 1-6 0 3 3 0 1 1 6 0zM68 49a3 3 0 1 1-6 0 3 3 0 1 1 6 0zM83 49a3 3 0 1 1-6 0 3 3 0 1 1 6 0zM99 49a3 3 0 1 1-6 0 3 3 0 1 1 6 0zM114 49c0 1.657-1.342 3-3 3s-3-1.343-3-3 1.342-3 3-3 3 1.343 3 3zM130 49c0 1.657-1.342 3-3 3s-3-1.343-3-3 1.342-3 3-3 3 1.343 3 3zM145 49c0 1.657-1.342 3-3 3s-3-1.343-3-3 1.342-3 3-3 3 1.343 3 3zM160 49c0 1.657-1.342 3-3 3s-3-1.343-3-3 1.342-3 3-3 3 1.343 3 3zM176 49c0 1.657-1.342 3-3 3s-3-1.343-3-3 1.342-3 3-3 3 1.343 3 3zM6 65a3 3 0 1 1-6 0 3 3 0 1 1 6 0zM22 65a3 3 0 1 1-6 0 3 3 0 1 1 6 0zM37 65a3 3 0 1 1-6 0 3 3 0 1 1 6 0zM52 65a3 3 0 1 1-6 0 3 3 0 1 1 6 0zM68 65a3 3 0 1 1-6 0 3 3 0 1 1 6 0zM83 65a3 3 0 1 1-6 0 3 3 0 1 1 6 0zM99 65a3 3 0 1 1-6 0 3 3 0 1 1 6 0zM114 65c0 1.657-1.342 3-3 3s-3-1.343-3-3 1.342-3 3-3 3 1.343 3 3zM130 65c0 1.657-1.342 3-3 3s-3-1.343-3-3 1.342-3 3-3 3 1.343 3 3zM145 65c0 1.657-1.342 3-3 3s-3-1.343-3-3 1.342-3 3-3 3 1.343 3 3zM160 65c0 1.657-1.342 3-3 3s-3-1.343-3-3 1.342-3 3-3 3 1.343 3 3zM176 65c0 1.657-1.342 3-3 3s-3-1.343-3-3 1.342-3 3-3 3 1.343 3 3zM6 80a3 3 0 1 1-6 0 3 3 0 1 1 6 0zM22 80a3 3 0 1 1-6 0 3 3 0 1 1 6 0zM37 80a3 3 0 1 1-6 0 3 3 0 1 1 6 0zM52 80a3 3 0 1 1-6 0 3 3 0 1 1 6 0zM68 80a3 3 0 1 1-6 0 3 3 0 1 1 6 0zM83 80a3 3 0 1 1-6 0 3 3 0 1 1 6 0zM99 80a3 3 0 1 1-6 0 3 3 0 1 1 6 0zM114 80c0 1.657-1.342 3-3 3s-3-1.343-3-3 1.342-3 3-3 3 1.343 3 3zM130 80c0 1.657-1.342 3-3 3s-3-1.343-3-3 1.342-3 3-3 3 1.343 3 3zM145 80c0 1.657-1.342 3-3 3s-3-1.343-3-3 1.342-3 3-3 3 1.343 3 3zM160 80c0 1.657-1.342 3-3 3s-3-1.343-3-3 1.342-3 3-3 3 1.343 3 3zM176 80c0 1.657-1.342 3-3 3s-3-1.343-3-3 1.342-3 3-3 3 1.343 3 3zM6 96a3 3 0 1 1-6 0 3 3 0 1 1 6 0zM22 96a3 3 0 1 1-6 0 3 3 0 1 1 6 0zM37 96a3 3 0 1 1-6 0 3 3 0 1 1 6 0zM52 96a3 3 0 1 1-6 0 3 3 0 1 1 6 0zM68 96a3 3 0 1 1-6 0 3 3 0 1 1 6 0zM83 96a3 3 0 1 1-6 0 3 3 0 1 1 6 0zM99 96a3 3 0 1 1-6 0 3 3 0 1 1 6 0zM114 96c0 1.657-1.342 3-3 3s-3-1.343-3-3 1.342-3 3-3 3 1.343 3 3zM130 96c0 1.657-1.342 3-3 3s-3-1.343-3-3 1.342-3 3-3 3 1.343 3 3zM145 96c0 1.657-1.342 3-3 3s-3-1.343-3-3 1.342-3 3-3 3 1.343 3 3zM160 96c0 1.657-1.342 3-3 3s-3-1.343-3-3 1.342-3 3-3 3 1.343 3 3zM176 96c0 1.657-1.342 3-3 3s-3-1.343-3-3 1.342-3 3-3 3 1.343 3 3zM6 111c0 1.658-1.343 3-3 3s-3-1.342-3-3 1.343-3 3-3 3 1.342 3 3zM22 111c0 1.658-1.343 3-3 3s-3-1.342-3-3 1.343-3 3-3 3 1.342 3 3zM37 111c0 1.658-1.343 3-3 3s-3-1.342-3-3 1.343-3 3-3 3 1.342 3 3zM52 111c0 1.658-1.343 3-3 3s-3-1.342-3-3 1.343-3 3-3 3 1.342 3 3zM68 111c0 1.658-1.343 3-3 3s-3-1.342-3-3 1.343-3 3-3 3 1.342 3 3zM83 111c0 1.658-1.343 3-3 3s-3-1.342-3-3 1.343-3 3-3 3 1.342 3 3zM99 111c0 1.658-1.343 3-3 3s-3-1.342-3-3 1.343-3 3-3 3 1.342 3 3zM114 111c0 1.658-1.342 3-3 3s-3-1.342-3-3 1.342-3 3-3 3 1.342 3 3zM130 111c0 1.658-1.342 3-3 3s-3-1.342-3-3 1.342-3 3-3 3 1.342 3 3zM145 111c0 1.658-1.342 3-3 3s-3-1.342-3-3 1.342-3 3-3 3 1.342 3 3zM160 111c0 1.658-1.342 3-3 3s-3-1.342-3-3 1.342-3 3-3 3 1.342 3 3zM176 111c0 1.658-1.342 3-3 3s-3-1.342-3-3 1.342-3 3-3 3 1.342 3 3zM6 126c0 1.658-1.343 3-3 3s-3-1.342-3-3 1.343-3 3-3 3 1.342 3 3zM22 126c0 1.658-1.343 3-3 3s-3-1.342-3-3 1.343-3 3-3 3 1.342 3 3zM37 126c0 1.658-1.343 3-3 3s-3-1.342-3-3 1.343-3 3-3 3 1.342 3 3zM52 126c0 1.658-1.343 3-3 3s-3-1.342-3-3 1.343-3 3-3 3 1.342 3 3zM68 126c0 1.658-1.343 3-3 3s-3-1.342-3-3 1.343-3 3-3 3 1.342 3 3zM83 126c0 1.658-1.343 3-3 3s-3-1.342-3-3 1.343-3 3-3 3 1.342 3 3zM99 126c0 1.658-1.343 3-3 3s-3-1.342-3-3 1.343-3 3-3 3 1.342 3 3zM114 126c0 1.658-1.342 3-3 3s-3-1.342-3-3 1.342-3 3-3 3 1.342 3 3zM130 126c0 1.658-1.342 3-3 3s-3-1.342-3-3 1.342-3 3-3 3 1.342 3 3zM145 126c0 1.658-1.342 3-3 3s-3-1.342-3-3 1.342-3 3-3 3 1.342 3 3zM160 126c0 1.658-1.342 3-3 3s-3-1.342-3-3 1.342-3 3-3 3 1.342 3 3zM176 126c0 1.658-1.342 3-3 3s-3-1.342-3-3 1.342-3 3-3 3 1.342 3 3zM6 142c0 1.658-1.343 3-3 3s-3-1.342-3-3 1.343-3 3-3 3 1.342 3 3zM22 142c0 1.658-1.343 3-3 3s-3-1.342-3-3 1.343-3 3-3 3 1.342 3 3zM37 142c0 1.658-1.343 3-3 3s-3-1.342-3-3 1.343-3 3-3 3 1.342 3 3zM52 142c0 1.658-1.343 3-3 3s-3-1.342-3-3 1.343-3 3-3 3 1.342 3 3zM68 142c0 1.658-1.343 3-3 3s-3-1.342-3-3 1.343-3 3-3 3 1.342 3 3zM83 142c0 1.658-1.343 3-3 3s-3-1.342-3-3 1.343-3 3-3 3 1.342 3 3zM99 142c0 1.658-1.343 3-3 3s-3-1.342-3-3 1.343-3 3-3 3 1.342 3 3zM114 142c0 1.658-1.342 3-3 3s-3-1.342-3-3 1.342-3 3-3 3 1.342 3 3zM130 142c0 1.658-1.342 3-3 3s-3-1.342-3-3 1.342-3 3-3 3 1.342 3 3zM145 142c0 1.658-1.342 3-3 3s-3-1.342-3-3 1.342-3 3-3 3 1.342 3 3zM160 142c0 1.658-1.342 3-3 3s-3-1.342-3-3 1.342-3 3-3 3 1.342 3 3zM176 142c0 1.658-1.342 3-3 3s-3-1.342-3-3 1.342-3 3-3 3 1.342 3 3zM6 157c0 1.658-1.343 3-3 3s-3-1.342-3-3 1.343-3 3-3 3 1.342 3 3zM22 157c0 1.658-1.343 3-3 3s-3-1.342-3-3 1.343-3 3-3 3 1.342 3 3zM37 157c0 1.658-1.343 3-3 3s-3-1.342-3-3 1.343-3 3-3 3 1.342 3 3zM52 157c0 1.658-1.343 3-3 3s-3-1.342-3-3 1.343-3 3-3 3 1.342 3 3zM68 157c0 1.658-1.343 3-3 3s-3-1.342-3-3 1.343-3 3-3 3 1.342 3 3zM83 157c0 1.658-1.343 3-3 3s-3-1.342-3-3 1.343-3 3-3 3 1.342 3 3zM99 157c0 1.658-1.343 3-3 3s-3-1.342-3-3 1.343-3 3-3 3 1.342 3 3zM114 157c0 1.658-1.342 3-3 3s-3-1.342-3-3 1.342-3 3-3 3 1.342 3 3zM130 157c0 1.658-1.342 3-3 3s-3-1.342-3-3 1.342-3 3-3 3 1.342 3 3zM145 157c0 1.658-1.342 3-3 3s-3-1.342-3-3 1.342-3 3-3 3 1.342 3 3zM160 157c0 1.658-1.342 3-3 3s-3-1.342-3-3 1.342-3 3-3 3 1.342 3 3zM176 157c0 1.658-1.342 3-3 3s-3-1.342-3-3 1.342-3 3-3 3 1.342 3 3zM6 173c0 1.658-1.343 3-3 3s-3-1.342-3-3 1.343-3 3-3 3 1.342 3 3zM22 173c0 1.658-1.343 3-3 3s-3-1.342-3-3 1.343-3 3-3 3 1.342 3 3zM37 173c0 1.658-1.343 3-3 3s-3-1.342-3-3 1.343-3 3-3 3 1.342 3 3zM52 173c0 1.658-1.343 3-3 3s-3-1.342-3-3 1.343-3 3-3 3 1.342 3 3zM68 173c0 1.658-1.343 3-3 3s-3-1.342-3-3 1.343-3 3-3 3 1.342 3 3zM83 173c0 1.658-1.343 3-3 3s-3-1.342-3-3 1.343-3 3-3 3 1.342 3 3zM99 173c0 1.658-1.343 3-3 3s-3-1.342-3-3 1.343-3 3-3 3 1.342 3 3zM114 173c0 1.658-1.342 3-3 3s-3-1.342-3-3 1.342-3 3-3 3 1.342 3 3zM130 173c0 1.658-1.342 3-3 3s-3-1.342-3-3 1.342-3 3-3 3 1.342 3 3zM145 173c0 1.658-1.342 3-3 3s-3-1.342-3-3 1.342-3 3-3 3 1.342 3 3zM160 173c0 1.658-1.342 3-3 3s-3-1.342-3-3 1.342-3 3-3 3 1.342 3 3zM176 173c0 1.658-1.342 3-3 3s-3-1.342-3-3 1.342-3 3-3 3 1.342 3 3zM6 188c0 1.658-1.343 3-3 3s-3-1.342-3-3 1.343-3 3-3 3 1.342 3 3zM22 188c0 1.658-1.343 3-3 3s-3-1.342-3-3 1.343-3 3-3 3 1.342 3 3zM37 188c0 1.658-1.343 3-3 3s-3-1.342-3-3 1.343-3 3-3 3 1.342 3 3zM52 188c0 1.658-1.343 3-3 3s-3-1.342-3-3 1.343-3 3-3 3 1.342 3 3zM68 188c0 1.658-1.343 3-3 3s-3-1.342-3-3 1.343-3 3-3 3 1.342 3 3zM83 188c0 1.658-1.343 3-3 3s-3-1.342-3-3 1.343-3 3-3 3 1.342 3 3zM99 188c0 1.658-1.343 3-3 3s-3-1.342-3-3 1.343-3 3-3 3 1.342 3 3zM114 188c0 1.658-1.342 3-3 3s-3-1.342-3-3 1.342-3 3-3 3 1.342 3 3zM130 188c0 1.658-1.342 3-3 3s-3-1.342-3-3 1.342-3 3-3 3 1.342 3 3zM145 188c0 1.658-1.342 3-3 3s-3-1.342-3-3 1.342-3 3-3 3 1.342 3 3zM160 188c0 1.658-1.342 3-3 3s-3-1.342-3-3 1.342-3 3-3 3 1.342 3 3zM176 188c0 1.658-1.342 3-3 3s-3-1.342-3-3 1.342-3 3-3 3 1.342 3 3zM22 3a3 3 0 1 1-6 0 3 3 0 1 1 6 0zM37 3a3 3 0 1 1-6 0 3 3 0 1 1 6 0zM52 3a3 3 0 1 1-6 0 3 3 0 1 1 6 0zM68 3a3 3 0 1 1-6 0 3 3 0 1 1 6 0zM83 3a3 3 0 1 1-6 0 3 3 0 1 1 6 0zM99 3a3 3 0 1 1-6 0 3 3 0 1 1 6 0zM114 3c0 1.657-1.342 3-3 3s-3-1.343-3-3 1.342-3 3-3 3 1.343 3 3zM130 3c0 1.657-1.342 3-3 3s-3-1.343-3-3 1.342-3 3-3 3 1.343 3 3zM145 3c0 1.657-1.342 3-3 3s-3-1.343-3-3 1.342-3 3-3 3 1.343 3 3zM160 3c0 1.657-1.342 3-3 3s-3-1.343-3-3 1.342-3 3-3 3 1.343 3 3zM176 3c0 1.657-1.342 3-3 3s-3-1.343-3-3 1.342-3 3-3 3 1.343 3 3z" fill="#7557D3"/></svg>