<svg width="261" height="263" viewBox="0 0 261 263" fill="none" xmlns="http://www.w3.org/2000/svg">
<path d="M0 86.57H86.55V0C63.5937 0.00530353 41.5794 9.12838 25.3487 25.3628C9.11799 41.5973 -6.12629e-07 63.6137 0 86.57Z" fill="#7557D3"/>
<path d="M173.54 89H87V175.32C109.922 175.347 131.916 166.268 148.145 150.08C164.373 133.893 173.508 111.922 173.54 89Z" fill="#A6CAE9"/>
<path d="M86.57 175.57H0V89C22.9598 89 44.9792 98.1207 61.2142 114.356C77.4492 130.591 86.57 152.61 86.57 175.57Z" fill="#00ABEC"/>
<path d="M173.55 176H87V262.57C109.956 262.565 131.971 253.442 148.201 237.207C164.432 220.973 173.55 198.956 173.55 176Z" fill="#7557D3"/>
<path d="M260.57 86.57H174V0C196.96 0 218.979 9.12074 235.214 25.3558C251.449 41.5908 260.57 63.6102 260.57 86.57Z" fill="#00ABEC"/>
</svg>
