<svg width="64" height="64" viewBox="0 0 64 64" fill="none" xmlns="http://www.w3.org/2000/svg">
<circle cx="32" cy="32" r="32" fill="#F16A6A" fill-opacity="0.2"/>
<path d="M39.965 28.521C39.988 28.347 40 28.173 40 28C40 25.621 37.857 23.712 35.479 24.035C34.786 22.802 33.466 22 32 22C30.534 22 29.214 22.802 28.521 24.035C26.138 23.712 24 25.621 24 28C24 28.173 24.012 28.347 24.035 28.521C22.802 29.215 22 30.535 22 32C22 33.465 22.802 34.785 24.035 35.479C24.012 35.653 24 35.827 24 36C24 38.379 26.138 40.283 28.521 39.965C29.214 41.198 30.534 42 32 42C33.466 42 34.786 41.198 35.479 39.965C37.857 40.283 40 38.379 40 36C40 35.827 39.988 35.653 39.965 35.479C41.198 34.785 42 33.465 42 32C42 30.535 41.198 29.215 39.965 28.521ZM30.955 36.416L27.288 32.702L28.712 31.298L30.969 33.584L35.296 29.29L36.704 30.71L30.955 36.416Z" fill="#F16A6A"/>
</svg>
