<svg width="64" height="64" viewBox="0 0 64 64" fill="none" xmlns="http://www.w3.org/2000/svg">
<circle cx="32" cy="32" r="32" fill="#D1C9F1" fill-opacity="0.5"/>
<path d="M24 33H30C30.552 33 31 32.553 31 32V24C31 23.447 30.552 23 30 23H24C23.448 23 23 23.447 23 24V32C23 32.553 23.448 33 24 33ZM23 40C23 40.553 23.448 41 24 41H30C30.552 41 31 40.553 31 40V36C31 35.447 30.552 35 30 35H24C23.448 35 23 35.447 23 36V40ZM33 40C33 40.553 33.447 41 34 41H40C40.553 41 41 40.553 41 40V33C41 32.447 40.553 32 40 32H34C33.447 32 33 32.447 33 33V40ZM34 30H40C40.553 30 41 29.553 41 29V24C41 23.447 40.553 23 40 23H34C33.447 23 33 23.447 33 24V29C33 29.553 33.447 30 34 30Z" fill="#7557D3"/>
</svg>
